<?xml version="1.0" encoding="utf-8"?>
<svg viewBox="56.487 197.492 360.847 61.9" xmlns="http://www.w3.org/2000/svg">
  <g id="svgg" transform="matrix(1, 0, 0, 1, 36.796772, 170.68602)">
    <path id="path0" d="M45.583 27.014 C 43.816 27.253,42.540 27.619,41.234 28.264 C 40.584 28.585,39.121 29.077,37.984 29.357 C 35.684 29.924,35.531 29.986,34.583 30.743 C 34.217 31.035,33.359 31.569,32.678 31.929 C 31.972 32.301,30.850 33.122,30.073 33.833 C 29.322 34.521,28.417 35.346,28.061 35.667 C 26.787 36.816,24.744 39.608,23.854 41.417 C 23.494 42.150,22.941 43.176,22.626 43.696 C 22.060 44.630,21.390 46.887,20.210 51.833 C 19.512 54.758,19.518 60.810,20.223 63.667 C 22.039 71.032,22.144 71.375,22.923 72.417 C 23.129 72.692,23.635 73.592,24.048 74.417 C 24.461 75.242,25.070 76.254,25.401 76.667 C 25.731 77.079,26.455 77.998,27.009 78.708 C 27.562 79.419,28.082 80.000,28.163 80.000 C 28.245 80.000,28.945 80.600,29.720 81.333 C 30.743 82.302,31.511 82.857,32.523 83.359 C 33.289 83.740,34.193 84.298,34.532 84.600 C 35.428 85.399,36.012 85.655,38.143 86.182 C 39.195 86.442,40.587 86.916,41.236 87.236 C 45.183 89.182,54.963 89.199,58.800 87.267 C 59.448 86.941,60.854 86.444,61.925 86.165 C 64.034 85.613,64.524 85.406,65.667 84.584 C 66.079 84.287,66.979 83.729,67.667 83.344 C 68.832 82.692,69.488 82.131,71.833 79.784 C 74.589 77.026,77.077 73.204,77.985 70.332 C 78.260 69.462,78.681 68.150,78.920 67.417 C 80.669 62.063,80.783 54.043,79.184 48.928 C 78.121 45.532,77.730 44.407,77.336 43.626 C 76.293 41.552,74.651 38.854,73.963 38.083 C 73.555 37.625,72.981 36.896,72.689 36.463 C 72.397 36.031,71.878 35.472,71.537 35.221 C 71.196 34.970,70.429 34.303,69.832 33.739 C 69.235 33.175,68.373 32.522,67.915 32.289 C 67.458 32.056,66.457 31.447,65.691 30.936 C 64.294 30.003,63.768 29.796,61.195 29.165 C 60.432 28.977,59.271 28.555,58.617 28.225 C 56.327 27.072,49.712 26.457,45.583 27.014 M161.333 27.067 C 159.536 27.588,159.091 27.989,158.404 29.702 L 157.917 30.917 157.869 56.396 C 157.817 84.173,157.826 84.518,158.672 86.236 C 159.942 88.815,158.837 88.689,179.773 88.632 L 197.250 88.583 197.928 88.221 C 198.830 87.738,198.986 87.525,199.600 85.937 L 200.124 84.583 199.796 84.118 C 198.252 81.931,198.507 81.964,181.917 81.849 L 167.583 81.750 167.054 81.353 C 166.763 81.134,166.275 80.609,165.971 80.186 L 165.417 79.417 165.370 71.436 C 165.318 62.419,165.249 62.919,166.639 62.276 C 167.402 61.923,167.614 61.915,177.917 61.823 C 189.332 61.722,189.317 61.723,190.250 60.774 C 191.079 59.932,191.517 57.919,191.039 57.148 C 189.768 55.093,189.270 55.017,177.092 55.007 L 167.768 55.000 167.158 54.577 C 166.822 54.345,166.293 53.801,165.982 53.369 L 165.417 52.583 165.417 44.333 L 165.417 36.083 165.971 35.314 C 166.275 34.891,166.763 34.366,167.054 34.147 L 167.583 33.750 181.917 33.651 C 198.507 33.536,198.252 33.569,199.796 31.382 L 200.124 30.917 199.600 29.563 C 198.986 27.975,198.830 27.762,197.928 27.279 L 197.250 26.917 179.667 26.883 C 165.617 26.856,161.933 26.893,161.333 27.067 M215.167 27.070 C 213.438 27.564,212.933 27.993,212.121 29.652 L 211.583 30.750 211.583 57.670 L 211.583 84.590 212.140 85.721 C 213.619 88.724,213.331 88.667,226.809 88.666 C 239.463 88.665,239.742 88.642,242.417 87.343 C 243.333 86.898,244.624 86.374,245.286 86.179 C 245.986 85.971,246.766 85.599,247.153 85.286 C 250.486 82.599,251.733 81.321,252.355 79.952 C 252.572 79.474,253.073 78.446,253.467 77.667 C 256.774 71.132,254.321 61.666,248.574 58.786 C 246.790 57.892,246.811 57.914,246.327 56.397 L 245.949 55.212 247.449 53.539 C 250.158 50.519,251.020 48.378,251.131 44.404 C 251.225 41.043,250.259 36.985,248.912 35.078 C 248.590 34.623,248.108 33.911,247.840 33.498 C 247.082 32.327,244.505 30.056,243.381 29.569 C 242.851 29.339,241.592 28.740,240.583 28.238 C 237.828 26.864,237.496 26.833,225.667 26.846 C 218.248 26.853,215.737 26.907,215.167 27.070 M290.000 27.067 C 288.188 27.344,286.847 27.738,285.646 28.344 C 285.120 28.609,283.814 29.055,282.743 29.335 C 280.600 29.895,280.019 30.145,279.202 30.857 C 278.901 31.119,278.263 31.531,277.786 31.773 C 275.754 32.799,272.151 36.085,270.714 38.221 C 270.276 38.873,269.678 39.727,269.387 40.117 C 269.096 40.508,268.496 41.553,268.054 42.439 C 267.612 43.326,267.079 44.379,266.870 44.779 C 265.271 47.844,263.957 58.232,264.736 61.657 C 264.874 62.264,265.139 63.703,265.323 64.854 C 265.780 67.703,266.713 70.899,267.347 71.788 C 267.623 72.176,268.098 73.039,268.402 73.705 C 268.706 74.371,269.210 75.254,269.522 75.667 C 269.834 76.079,270.439 76.910,270.866 77.513 C 272.257 79.477,275.655 82.572,277.262 83.339 C 278.023 83.702,279.000 84.306,279.433 84.681 C 280.342 85.467,280.474 85.525,282.882 86.180 C 283.871 86.449,285.124 86.893,285.666 87.166 C 289.575 89.140,299.458 89.225,303.417 87.319 C 304.150 86.966,305.600 86.449,306.639 86.169 C 308.748 85.601,309.212 85.394,310.416 84.487 C 310.875 84.140,311.737 83.618,312.333 83.325 C 314.219 82.398,318.408 78.305,319.672 76.155 C 319.964 75.657,320.449 74.912,320.748 74.500 C 321.429 73.562,322.033 72.355,322.417 71.167 C 322.579 70.662,323.047 69.350,323.457 68.250 C 325.452 62.891,325.517 52.470,323.587 47.433 C 321.821 42.825,321.618 42.386,320.578 40.917 C 320.188 40.367,319.698 39.550,319.488 39.101 C 319.279 38.652,318.779 37.947,318.378 37.535 C 317.977 37.122,317.431 36.468,317.165 36.081 C 316.899 35.694,316.321 35.146,315.882 34.864 C 315.443 34.581,314.746 34.003,314.333 33.578 C 313.919 33.150,313.062 32.546,312.417 32.224 C 311.775 31.905,310.851 31.342,310.362 30.974 C 309.189 30.088,308.432 29.769,306.300 29.266 C 305.200 29.006,304.024 28.589,303.219 28.173 C 300.969 27.012,294.115 26.438,290.000 27.067 M335.282 27.147 C 333.735 27.552,333.395 27.926,333.081 29.570 L 332.830 30.881 333.256 31.609 C 334.331 33.442,335.454 33.661,343.824 33.664 L 350.565 33.667 351.176 34.089 C 351.511 34.322,352.040 34.866,352.351 35.298 L 352.917 36.083 353.000 60.417 L 353.083 84.750 353.726 86.040 C 354.670 87.935,355.270 88.402,356.569 88.256 C 358.831 88.000,359.191 87.726,359.881 85.733 L 360.337 84.417 360.335 60.229 C 360.334 39.308,360.366 35.961,360.579 35.454 C 361.244 33.861,362.164 33.667,369.034 33.667 C 377.010 33.667,377.221 33.644,378.790 32.600 C 380.721 31.315,380.777 31.200,380.259 29.560 C 379.803 28.115,379.644 27.913,378.500 27.311 L 377.750 26.917 357.083 26.883 C 337.725 26.852,336.345 26.869,335.282 27.147 M137.167 27.275 C 135.979 27.685,135.343 28.271,134.770 29.483 L 134.250 30.583 134.167 50.750 C 134.085 70.539,134.077 70.927,133.750 71.482 C 133.125 72.543,132.982 72.528,131.633 71.264 C 130.964 70.637,130.211 69.933,129.959 69.701 C 129.707 69.469,129.266 68.860,128.979 68.348 C 128.692 67.836,128.148 67.072,127.770 66.651 C 127.392 66.229,126.761 65.287,126.368 64.557 C 125.974 63.826,125.277 62.821,124.819 62.323 C 124.360 61.824,123.715 61.004,123.385 60.500 C 123.055 59.996,122.564 59.347,122.293 59.059 C 122.023 58.770,121.452 57.971,121.026 57.282 C 120.270 56.063,117.745 52.621,116.818 51.549 C 116.565 51.256,116.058 50.506,115.692 49.883 C 115.327 49.260,114.753 48.487,114.416 48.167 C 114.079 47.846,113.667 47.318,113.500 46.994 C 113.333 46.670,112.666 45.777,112.019 45.011 C 111.372 44.244,110.541 43.110,110.173 42.491 C 109.805 41.872,109.198 41.077,108.825 40.724 C 108.451 40.372,107.878 39.577,107.552 38.958 C 107.226 38.340,106.682 37.515,106.343 37.125 C 106.004 36.735,105.476 36.042,105.169 35.583 C 104.862 35.125,104.109 34.112,103.497 33.333 C 102.884 32.554,102.168 31.579,101.906 31.167 C 101.645 30.754,101.085 30.042,100.662 29.583 C 100.240 29.125,99.761 28.545,99.597 28.295 C 98.238 26.217,95.149 27.028,94.053 29.750 L 93.583 30.917 93.583 57.750 L 93.583 84.583 94.053 85.750 C 94.789 87.578,95.106 87.853,96.912 88.231 C 98.774 88.622,99.335 88.226,100.312 85.833 L 100.823 84.583 100.870 65.500 C 100.924 43.408,100.782 44.897,102.865 44.559 C 103.485 44.459,103.447 44.419,104.879 46.667 C 105.200 47.171,105.845 47.977,106.312 48.459 C 106.779 48.941,107.315 49.638,107.504 50.008 C 107.693 50.379,108.094 50.960,108.395 51.299 C 108.697 51.639,109.193 52.292,109.498 52.750 C 109.804 53.208,110.372 53.962,110.760 54.424 C 111.633 55.461,112.429 56.505,113.140 57.542 C 113.439 57.977,114.047 58.697,114.491 59.142 C 114.935 59.586,115.427 60.205,115.584 60.516 C 115.741 60.828,116.260 61.608,116.737 62.250 C 118.653 64.829,120.330 67.148,121.135 68.333 C 121.603 69.021,122.215 69.803,122.495 70.072 C 122.776 70.341,123.260 71.016,123.572 71.572 C 123.883 72.128,124.340 72.771,124.587 73.000 C 124.835 73.229,125.341 73.867,125.712 74.417 C 126.083 74.967,126.889 76.054,127.502 76.833 C 128.116 77.612,128.832 78.587,129.094 79.000 C 129.356 79.412,129.886 80.096,130.271 80.520 C 130.657 80.943,131.161 81.662,131.392 82.117 C 131.622 82.573,132.142 83.276,132.546 83.681 C 132.950 84.086,133.588 84.874,133.963 85.433 C 135.597 87.869,137.746 88.977,139.298 88.184 C 140.081 87.785,140.293 87.526,141.051 86.046 L 141.667 84.842 141.667 57.750 L 141.667 30.658 141.051 29.454 C 139.882 27.171,138.962 26.655,137.167 27.275 M52.854 33.925 C 53.255 34.068,54.708 34.408,56.083 34.681 C 59.396 35.339,60.234 35.621,61.064 36.351 C 61.446 36.688,62.263 37.192,62.879 37.471 C 64.078 38.014,66.456 40.201,67.715 41.917 C 68.052 42.375,68.553 42.968,68.829 43.235 C 69.680 44.057,72.069 49.144,72.476 51.000 C 73.392 55.175,73.449 58.714,72.675 63.224 L 72.165 66.198 70.744 69.081 C 69.828 70.939,69.117 72.162,68.743 72.523 C 68.423 72.831,67.890 73.473,67.559 73.950 C 66.688 75.203,63.984 77.583,63.032 77.936 C 62.177 78.253,61.481 78.676,60.828 79.273 C 60.259 79.794,58.953 80.222,56.300 80.757 C 55.081 81.002,53.596 81.355,53.000 81.540 C 51.590 81.978,48.201 81.881,46.500 81.355 C 45.904 81.171,44.421 80.831,43.205 80.600 C 40.754 80.134,39.778 79.768,38.757 78.931 C 38.379 78.622,37.550 78.133,36.914 77.844 C 36.170 77.507,35.489 77.038,35.004 76.529 C 34.589 76.093,33.889 75.450,33.448 75.099 C 33.007 74.748,32.452 74.151,32.214 73.772 C 31.977 73.393,31.475 72.738,31.099 72.316 C 30.281 71.396,28.006 66.559,27.502 64.667 C 25.631 57.648,27.447 47.246,31.262 43.125 C 31.760 42.587,32.167 42.064,32.167 41.961 C 32.167 41.858,32.748 41.202,33.458 40.504 C 34.169 39.805,34.997 38.963,35.299 38.633 C 35.617 38.285,36.248 37.875,36.799 37.657 C 37.322 37.451,38.128 37.003,38.589 36.663 C 39.989 35.629,40.787 35.318,43.321 34.814 C 44.657 34.549,46.087 34.223,46.500 34.090 C 47.972 33.616,51.708 33.519,52.854 33.925 M236.050 34.096 C 236.894 34.333,238.146 34.683,238.833 34.875 C 240.629 35.377,241.266 35.770,241.862 36.743 C 242.145 37.205,242.595 37.860,242.861 38.198 C 244.511 40.294,244.741 45.588,243.315 48.681 C 242.629 50.170,240.538 52.214,238.851 53.045 L 237.757 53.583 229.670 53.640 C 221.732 53.695,221.566 53.689,220.629 53.337 C 218.874 52.679,218.984 53.314,219.037 44.092 L 219.083 36.074 219.629 35.329 C 219.928 34.919,220.448 34.377,220.783 34.125 L 221.393 33.667 227.955 33.667 C 234.501 33.667,234.522 33.668,236.050 34.096 M298.193 34.075 C 299.050 34.299,300.237 34.563,300.833 34.661 C 303.670 35.130,304.840 35.516,305.679 36.261 C 306.120 36.653,307.076 37.283,307.802 37.661 C 308.843 38.202,309.368 38.620,310.270 39.627 C 310.901 40.331,311.993 41.520,312.698 42.270 C 313.538 43.163,314.190 44.055,314.591 44.858 C 314.928 45.532,315.311 46.205,315.442 46.353 C 316.214 47.231,317.389 51.071,317.826 54.143 C 318.482 58.767,317.290 66.585,315.535 69.165 C 315.378 69.395,314.912 70.201,314.500 70.955 C 313.320 73.113,309.655 76.877,307.796 77.840 C 307.037 78.232,306.087 78.842,305.684 79.194 C 304.843 79.930,304.240 80.133,300.859 80.824 C 299.516 81.098,298.042 81.436,297.583 81.576 C 296.309 81.964,294.146 81.901,291.876 81.409 C 290.798 81.176,288.942 80.809,287.750 80.594 C 285.291 80.149,284.971 80.033,283.583 79.070 C 283.033 78.688,282.021 78.060,281.333 77.675 C 280.622 77.276,279.785 76.635,279.393 76.189 C 279.013 75.757,278.390 75.187,278.009 74.923 C 277.601 74.640,277.074 74.031,276.729 73.442 C 276.407 72.892,275.895 72.152,275.591 71.797 C 274.872 70.958,274.141 69.572,273.492 67.822 C 273.205 67.049,272.746 65.817,272.471 65.083 C 271.020 61.208,271.138 53.831,272.716 49.813 C 273.126 48.770,273.518 47.729,273.587 47.500 C 273.937 46.336,275.080 44.198,275.718 43.516 C 276.111 43.095,276.614 42.429,276.834 42.036 C 277.054 41.644,277.631 41.023,278.116 40.656 C 278.602 40.290,279.125 39.786,279.280 39.537 C 279.818 38.671,280.256 38.296,281.417 37.714 C 282.058 37.391,283.033 36.815,283.583 36.432 C 284.937 35.491,285.227 35.382,287.649 34.904 C 288.805 34.677,290.117 34.371,290.565 34.224 C 292.636 33.547,295.934 33.482,298.193 34.075 M237.000 60.658 C 238.062 60.807,242.896 62.100,243.406 62.370 C 243.958 62.663,246.395 64.983,246.641 65.450 C 248.538 69.045,247.863 75.889,245.421 77.830 C 245.070 78.109,244.618 78.560,244.417 78.833 C 243.683 79.828,243.267 80.015,239.000 81.271 L 237.417 81.737 229.442 81.797 L 221.468 81.856 220.841 81.422 C 220.496 81.183,219.960 80.634,219.649 80.202 L 219.083 79.417 219.083 71.162 L 219.083 62.907 219.629 62.162 C 219.928 61.752,220.448 61.210,220.783 60.958 L 221.393 60.500 228.738 60.514 C 232.778 60.522,236.496 60.586,237.000 60.658 " stroke="none" fill-rule="evenodd" style="fill: rgb(255, 255, 255);"/>
  </g>
</svg>