<?xml version="1.0" encoding="utf-8"?>
<svg viewBox="63.43 54.886 342.995 209.965" xmlns="http://www.w3.org/2000/svg">
  <g id="svgg" transform="matrix(1, 0, 0, 1, 31.917339, 20.772062)">
    <path id="path0" d="M127.480 34.321 C 126.559 34.441,125.550 34.706,125.238 34.912 C 122.072 36.996,120.088 39.536,119.255 42.572 C 118.727 44.498,118.723 45.019,118.803 95.016 C 118.895 151.596,118.777 148.187,120.696 149.800 C 121.172 150.200,121.887 151.026,122.285 151.636 C 123.051 152.811,124.885 153.714,127.803 154.353 C 130.914 155.034,275.967 155.140,278.291 154.463 C 279.381 154.145,279.409 154.122,278.496 154.290 C 273.926 155.135,199.562 152.945,194.129 151.806 L 193.404 151.654 193.404 147.595 C 193.404 145.362,193.493 143.536,193.602 143.535 C 193.710 143.535,195.046 143.420,196.570 143.279 C 200.901 142.879,243.010 141.856,265.435 141.606 C 268.410 141.572,240.143 141.518,202.619 141.485 L 134.393 141.425 133.753 140.744 L 133.113 140.063 133.044 94.685 L 132.974 49.307 133.788 48.493 L 134.602 47.679 202.987 47.821 C 269.024 47.958,274.674 47.879,243.272 47.256 C 219.132 46.777,212.046 46.487,209.894 45.892 C 208.879 45.611,207.216 45.380,206.201 45.379 C 201.245 45.375,195.959 44.763,194.129 43.981 L 193.404 43.671 193.404 39.808 C 193.404 36.028,193.416 35.942,193.997 35.778 C 195.611 35.323,221.562 34.714,256.069 34.322 C 267.635 34.191,249.251 34.121,201.319 34.114 C 161.629 34.108,128.402 34.202,127.480 34.321 M282.586 35.966 C 282.586 36.012,282.972 36.398,283.443 36.824 L 284.301 37.599 283.526 36.741 C 282.803 35.942,282.586 35.763,282.586 35.966 M284.616 38.543 C 284.878 38.989,285.261 39.494,285.467 39.664 C 285.673 39.834,285.509 39.469,285.102 38.852 C 284.248 37.557,283.911 37.343,284.616 38.543 M36.865 40.118 C 34.389 40.729,32.142 42.929,31.678 45.195 C 31.226 47.399,31.761 55.009,32.554 57.673 C 32.903 58.846,33.383 61.280,33.621 63.082 C 34.689 71.188,34.864 72.118,35.606 73.597 C 36.011 74.405,36.665 76.016,37.059 77.177 C 37.452 78.338,38.115 79.898,38.531 80.645 C 38.947 81.392,39.579 82.721,39.936 83.599 C 40.293 84.477,40.881 85.588,41.244 86.068 C 41.607 86.547,42.331 87.821,42.853 88.899 C 43.375 89.977,43.966 91.046,44.165 91.274 C 44.364 91.502,44.713 92.055,44.940 92.504 C 45.415 93.444,48.257 96.941,49.959 98.681 C 50.597 99.334,51.335 100.207,51.597 100.620 C 51.883 101.071,52.795 101.723,53.872 102.248 C 54.861 102.729,55.982 103.494,56.364 103.947 C 56.746 104.401,57.548 105.018,58.147 105.317 C 58.745 105.617,59.591 106.186,60.026 106.582 C 60.462 106.978,61.352 107.624,62.005 108.017 C 62.658 108.410,63.571 109.006,64.034 109.342 C 64.496 109.677,66.277 110.335,67.991 110.805 C 69.706 111.274,71.696 111.951,72.415 112.310 C 73.633 112.916,77.213 114.013,82.613 115.431 C 84.595 115.952,90.942 116.788,96.702 117.287 C 97.718 117.375,99.914 117.629,101.583 117.851 C 106.159 118.459,108.476 118.706,109.499 118.694 C 110.007 118.688,108.803 118.469,106.824 118.206 C 104.844 117.944,102.589 117.600,101.810 117.442 C 101.032 117.283,98.437 116.969,96.042 116.744 C 88.480 116.031,85.953 115.539,84.408 114.477 C 84.031 114.218,81.839 113.620,79.537 113.148 C 75.417 112.303,75.334 112.272,74.230 111.183 C 73.252 110.220,72.877 110.039,71.310 109.774 C 69.090 109.400,69.129 109.427,68.259 107.625 L 67.546 106.148 67.546 87.896 L 67.546 69.644 68.140 69.428 C 68.978 69.122,97.050 67.897,106.464 67.755 C 108.786 67.720,102.197 67.626,91.821 67.547 L 72.955 67.403 70.317 66.568 C 68.865 66.109,66.277 65.486,64.564 65.184 C 62.468 64.814,60.997 64.393,60.063 63.894 C 59.300 63.487,57.901 62.881,56.954 62.546 C 56.007 62.212,54.767 61.530,54.199 61.031 C 53.631 60.533,52.869 59.963,52.507 59.765 C 52.144 59.568,51.341 58.863,50.723 58.199 C 50.105 57.535,49.495 56.992,49.367 56.992 C 49.240 56.992,48.618 56.200,47.985 55.231 C 47.352 54.262,46.647 53.197,46.419 52.863 C 46.191 52.529,45.792 51.036,45.533 49.545 C 44.400 43.023,40.829 39.140,36.865 40.118 M364.885 40.498 C 364.305 40.813,362.007 44.111,360.966 46.124 C 360.793 46.459,360.425 48.048,360.150 49.655 C 359.874 51.262,359.463 52.828,359.236 53.135 C 359.010 53.443,358.485 54.200,358.070 54.819 C 357.127 56.227,354.300 59.059,352.902 59.995 C 352.322 60.383,351.464 60.981,350.996 61.323 C 350.528 61.664,349.162 62.206,347.962 62.526 C 346.761 62.846,344.641 63.563,343.251 64.119 C 341.861 64.676,340.258 65.215,339.689 65.318 C 339.120 65.421,337.348 65.927,335.752 66.444 L 332.850 67.382 324.538 67.542 C 319.967 67.630,311.022 67.729,304.661 67.761 C 292.190 67.825,292.069 67.838,291.153 69.237 C 290.508 70.221,290.685 117.183,291.336 117.834 C 291.996 118.494,294.994 118.616,298.206 118.114 C 299.701 117.881,302.526 117.562,304.485 117.406 C 314.139 116.639,318.909 116.065,320.990 115.420 C 322.158 115.058,324.948 114.408,327.190 113.974 C 330.152 113.401,331.804 112.931,333.232 112.254 C 334.313 111.741,336.609 110.973,338.334 110.546 C 340.610 109.983,341.736 109.562,342.437 109.011 C 342.969 108.593,343.819 108.041,344.327 107.783 C 344.835 107.526,345.632 106.982,346.098 106.576 C 346.565 106.170,347.470 105.607,348.110 105.323 C 348.749 105.040,349.733 104.395,350.296 103.890 C 350.859 103.384,351.923 102.601,352.660 102.150 C 353.629 101.556,354.210 100.944,354.756 99.941 C 355.171 99.178,356.646 97.304,358.033 95.777 C 361.465 91.998,362.125 91.108,363.156 88.869 C 363.644 87.808,364.412 86.483,364.862 85.926 C 365.311 85.369,365.928 84.249,366.232 83.436 C 366.536 82.623,367.193 81.227,367.693 80.334 C 368.193 79.440,368.602 78.567,368.602 78.392 C 368.602 77.933,366.528 81.939,365.908 83.597 C 365.618 84.371,365.037 85.396,364.616 85.875 C 364.195 86.355,363.537 87.443,363.152 88.294 C 362.248 90.298,360.254 92.913,357.246 96.042 C 355.920 97.421,354.548 99.111,354.196 99.798 C 353.730 100.710,353.255 101.198,352.438 101.607 C 351.823 101.914,350.647 102.688,349.825 103.325 C 349.003 103.963,347.756 104.729,347.054 105.026 C 346.353 105.324,345.600 105.785,345.383 106.051 C 345.165 106.316,344.274 106.837,343.404 107.209 C 337.658 109.660,336.655 109.924,332.418 110.107 C 329.301 110.242,328.232 110.527,328.232 111.223 C 328.232 111.436,327.995 111.609,327.704 111.609 C 327.181 111.609,327.177 111.434,327.177 90.775 L 327.177 69.941 328.166 69.689 C 328.710 69.550,330.379 69.301,331.873 69.135 C 335.237 68.760,336.572 68.368,338.038 67.324 C 338.818 66.769,340.064 66.289,341.953 65.816 C 343.729 65.371,345.113 64.850,345.811 64.363 C 346.410 63.945,347.797 63.318,348.893 62.970 C 351.801 62.046,356.744 57.964,358.047 55.409 C 358.316 54.882,358.730 54.290,358.966 54.094 C 359.690 53.493,359.909 52.852,360.410 49.871 C 361.083 45.870,363.394 41.597,365.441 40.568 C 365.946 40.314,366.181 40.111,365.963 40.117 C 365.745 40.122,365.260 40.294,364.885 40.498 M370.712 40.716 C 370.712 40.761,371.098 41.147,371.570 41.573 L 372.427 42.348 371.652 41.491 C 370.930 40.691,370.712 40.512,370.712 40.716 M287.200 93.931 C 287.200 121.431,287.231 132.681,287.269 118.931 C 287.307 105.181,287.307 82.681,287.269 68.931 C 287.231 55.181,287.200 66.431,287.200 93.931 M272.078 48.779 C 272.415 49.195,272.729 49.503,272.776 49.463 C 272.933 49.329,272.176 48.296,271.820 48.159 C 271.625 48.084,271.741 48.363,272.078 48.779 M272.952 93.931 C 272.952 118.239,272.983 128.183,273.021 116.029 C 273.059 103.875,273.059 83.987,273.021 71.834 C 272.983 59.680,272.952 69.624,272.952 93.931 M372.706 60.569 C 372.607 61.098,372.578 61.584,372.643 61.649 C 372.707 61.713,372.841 61.333,372.940 60.803 C 373.040 60.274,373.068 59.788,373.004 59.723 C 372.939 59.659,372.805 60.039,372.706 60.569 M198.417 61.236 C 197.474 61.814,196.464 62.525,196.174 62.814 C 195.373 63.611,195.208 128.393,196.003 129.693 C 197.793 132.618,207.677 132.688,209.825 129.790 C 210.469 128.922,210.643 64.651,210.006 63.252 C 209.799 62.799,208.929 62.077,207.706 61.341 L 205.738 60.158 202.935 60.171 C 200.137 60.183,200.129 60.185,198.417 61.236 M207.048 63.340 C 208.356 63.782,208.690 64.014,208.832 64.576 C 209.198 66.037,209.031 127.640,208.659 128.403 C 207.452 130.876,198.001 130.637,197.159 128.112 C 196.666 126.630,196.809 64.564,197.307 64.063 C 198.595 62.768,204.135 62.357,207.048 63.340 M114.110 92.348 C 114.110 105.046,114.143 110.241,114.182 103.892 C 114.221 97.543,114.221 87.154,114.182 80.805 C 114.143 74.456,114.110 79.650,114.110 92.348 M371.007 71.821 C 370.990 72.068,370.501 73.172,369.921 74.274 C 369.340 75.377,368.871 76.481,368.878 76.728 C 368.885 76.975,369.099 76.642,369.355 75.989 C 369.611 75.336,370.149 74.241,370.551 73.556 C 370.953 72.871,371.227 72.099,371.160 71.841 C 371.050 71.421,371.034 71.419,371.007 71.821 M220.976 76.738 C 219.748 77.315,219.152 77.923,218.733 79.024 C 218.257 80.275,218.297 128.195,218.775 129.192 C 218.989 129.639,219.811 130.330,220.843 130.930 L 222.557 131.926 225.592 131.907 C 229.238 131.884,231.666 131.218,232.566 129.994 C 233.111 129.252,233.113 129.136,233.113 104.268 C 233.113 76.332,233.209 77.752,231.266 76.781 C 229.949 76.123,222.352 76.091,220.976 76.738 M229.559 78.017 C 230.773 78.843,231.631 79.906,231.792 80.786 C 232.137 82.668,231.814 128.655,231.453 129.090 C 230.638 130.072,223.774 130.465,222.248 129.617 C 220.684 128.748,219.450 126.949,219.677 125.871 C 219.786 125.356,219.908 114.904,219.947 102.644 C 219.995 87.792,220.109 80.324,220.288 80.265 C 220.436 80.215,220.978 79.589,221.492 78.874 L 222.427 77.573 225.666 77.573 C 228.268 77.573,229.035 77.660,229.559 78.017 M175.989 86.712 C 172.317 88.363,172.691 85.807,172.691 109.235 C 172.691 129.129,172.695 129.253,173.243 129.994 C 174.694 131.952,181.661 132.668,184.638 131.163 C 187.793 129.569,187.596 131.033,187.611 109.109 C 187.626 88.067,187.693 88.859,185.838 87.899 C 185.283 87.611,184.420 87.070,183.920 86.696 C 182.603 85.711,178.197 85.720,175.989 86.712 M243.686 87.478 C 242.680 88.255,241.730 89.105,241.575 89.366 C 241.144 90.093,241.184 128.121,241.617 129.093 C 241.802 129.508,242.654 130.274,243.596 130.872 L 245.251 131.921 248.285 131.914 C 252.116 131.906,254.236 131.434,255.185 130.379 C 256.194 129.258,256.249 127.924,256.153 107.256 C 256.053 85.894,256.436 88.061,252.507 86.639 C 251.109 86.133,250.303 86.023,248.153 86.042 L 245.515 86.066 243.686 87.478 M184.116 89.025 C 186.042 90.027,186.705 91.617,186.125 93.844 C 185.716 95.413,185.729 122.937,186.139 125.598 C 186.672 129.053,182.411 130.884,176.368 129.798 C 173.955 129.364,174.142 131.092,174.142 109.235 C 174.142 88.450,174.102 89.077,175.462 88.841 C 177.219 88.535,183.429 88.668,184.116 89.025 M254.203 89.069 C 254.805 89.671,254.838 129.040,254.237 129.538 C 253.568 130.094,246.205 130.245,245.198 129.724 C 243.804 129.004,243.770 128.460,243.855 108.241 L 243.931 90.016 244.571 89.335 C 245.378 88.476,253.389 88.255,254.203 89.069 M153.191 108.710 C 149.811 110.029,149.600 110.682,149.623 119.714 C 149.655 131.717,149.792 131.926,157.599 131.926 L 160.604 131.926 162.209 130.889 C 164.593 129.348,164.500 129.744,164.596 120.736 C 164.696 111.306,164.864 112.128,162.393 109.948 L 160.390 108.179 157.438 108.192 C 155.177 108.201,154.182 108.323,153.191 108.710 M160.827 111.351 C 162.065 112.117,162.075 112.171,162.209 119.112 C 162.323 124.987,162.221 126.543,161.572 128.829 C 161.268 129.898,160.021 130.165,156.074 130.004 C 151.577 129.820,151.520 129.801,151.316 128.407 C 151.091 126.868,151.275 111.961,151.522 111.714 C 152.448 110.790,159.475 110.516,160.827 111.351 M272.449 139.422 C 272.349 139.955,271.986 140.575,271.590 140.886 C 270.797 141.509,271.105 141.622,271.962 141.021 C 272.493 140.650,273.061 138.936,272.755 138.630 C 272.682 138.557,272.545 138.914,272.449 139.422 M236.485 158.656 C 235.813 159.029,233.888 161.712,232.747 163.867 C 232.320 164.673,231.547 165.839,231.030 166.458 C 230.512 167.078,229.949 168.052,229.778 168.623 C 229.607 169.194,229.065 170.131,228.574 170.704 C 228.082 171.278,227.339 172.494,226.921 173.407 C 226.418 174.506,225.618 175.600,224.550 176.649 L 222.939 178.232 202.867 178.308 L 182.796 178.385 181.225 176.725 C 180.362 175.813,179.329 174.413,178.930 173.615 C 178.531 172.817,177.776 171.604,177.252 170.920 C 176.728 170.237,176.222 169.325,176.128 168.893 C 176.033 168.462,175.504 167.597,174.953 166.970 C 174.402 166.344,173.529 164.993,173.014 163.969 C 172.498 162.945,171.893 161.955,171.670 161.770 C 171.447 161.584,170.958 160.911,170.584 160.273 C 169.580 158.559,169.666 158.575,161.482 158.575 C 153.447 158.575,152.686 158.694,152.358 159.998 C 152.201 160.626,153.686 163.987,154.558 164.976 C 155.172 165.672,157.374 169.279,158.463 171.372 C 158.991 172.388,159.870 173.817,160.416 174.547 C 160.962 175.278,161.679 176.406,162.009 177.054 C 162.339 177.702,162.876 178.588,163.202 179.024 C 163.527 179.459,164.165 180.557,164.619 181.464 L 165.443 183.113 164.673 184.631 C 164.249 185.465,163.526 186.504,163.067 186.939 C 162.608 187.375,161.977 188.146,161.665 188.654 C 161.354 189.162,160.729 190.066,160.277 190.662 C 159.764 191.338,159.336 192.330,159.140 193.300 C 158.967 194.155,158.572 196.042,158.262 197.493 C 157.394 201.556,157.219 218.607,158.014 221.602 C 158.308 222.709,158.680 224.624,158.840 225.858 C 159.254 229.030,159.512 229.847,160.515 231.162 C 161.002 231.800,161.657 232.825,161.970 233.439 C 162.283 234.054,162.833 234.749,163.190 234.983 C 163.548 235.218,164.253 235.983,164.757 236.684 C 165.383 237.556,166.064 238.131,166.912 238.507 C 167.594 238.808,168.668 239.530,169.298 240.111 C 170.488 241.209,171.014 241.479,173.879 242.466 C 178.394 244.021,176.211 243.903,202.111 243.995 L 225.989 244.079 228.364 243.439 C 234.465 241.794,236.579 240.971,237.599 239.841 C 237.889 239.520,238.689 238.972,239.377 238.623 C 240.330 238.139,240.778 237.692,241.261 236.738 C 241.610 236.051,242.161 235.251,242.485 234.960 C 243.131 234.382,246.098 230.081,246.355 229.348 C 246.444 229.097,245.706 230.079,244.717 231.530 C 243.727 232.982,242.651 234.421,242.325 234.729 C 242.000 235.037,241.498 235.750,241.211 236.312 C 240.597 237.516,240.027 238.046,238.843 238.515 C 238.367 238.703,237.768 239.124,237.512 239.449 C 236.790 240.366,234.948 241.178,232.404 241.699 C 231.126 241.961,229.338 242.451,228.431 242.789 C 225.942 243.716,200.947 243.420,197.559 242.424 L 196.570 242.133 196.570 231.146 C 196.570 223.532,196.659 220.070,196.859 219.869 C 197.018 219.710,197.204 219.122,197.273 218.563 C 197.391 217.595,197.597 217.328,199.001 216.323 C 200.467 215.274,199.754 205.538,198.082 203.772 C 196.878 202.501,196.753 201.338,196.651 190.458 L 196.558 180.520 197.289 180.364 C 198.578 180.089,204.167 179.708,210.950 179.433 C 214.578 179.286,218.847 179.089,220.436 178.996 L 223.326 178.827 224.883 177.342 C 225.961 176.314,226.678 175.330,227.215 174.142 C 227.642 173.199,228.341 171.991,228.767 171.458 C 229.194 170.925,229.784 169.847,230.077 169.063 C 230.371 168.278,231.030 167.147,231.541 166.550 C 232.053 165.952,232.712 164.918,233.007 164.252 C 233.302 163.586,233.875 162.660,234.281 162.193 C 234.687 161.727,235.202 160.989,235.425 160.553 C 236.368 158.710,236.319 158.722,243.497 158.564 L 250.000 158.421 243.536 158.376 C 238.824 158.342,236.912 158.418,236.485 158.656 M249.208 168.338 C 248.983 168.773,248.858 169.129,248.931 169.129 C 249.004 169.129,249.247 168.773,249.472 168.338 C 249.697 167.902,249.822 167.546,249.750 167.546 C 249.677 167.546,249.434 167.902,249.208 168.338 M247.858 170.515 C 246.504 172.781,245.492 174.394,244.561 175.769 C 242.918 178.194,240.369 182.657,240.369 183.107 C 240.369 183.667,241.768 185.894,242.859 187.071 C 243.330 187.579,244.036 188.529,244.429 189.182 C 245.436 190.856,246.438 192.210,246.438 191.898 C 246.438 191.752,246.052 191.111,245.580 190.473 C 245.109 189.836,244.491 188.859,244.208 188.303 C 243.925 187.748,243.371 187.022,242.978 186.690 C 242.584 186.359,241.889 185.427,241.433 184.620 L 240.605 183.152 241.254 181.880 C 241.611 181.180,242.215 180.151,242.596 179.594 C 242.977 179.036,243.643 177.908,244.077 177.087 C 244.511 176.266,245.369 174.862,245.982 173.967 C 247.221 172.160,248.834 169.393,248.648 169.393 C 248.582 169.393,248.227 169.898,247.858 170.515 M247.292 196.570 C 247.292 196.933,247.383 197.586,247.493 198.021 C 247.673 198.727,247.695 198.741,247.695 198.153 C 247.695 197.790,247.604 197.137,247.493 196.702 C 247.314 195.996,247.292 195.982,247.292 196.570 M247.920 199.604 C 248.459 202.256,248.325 219.254,247.745 221.761 C 247.423 223.154,247.213 224.346,247.279 224.411 C 248.378 225.510,249.109 202.343,248.062 199.604 L 247.759 198.813 247.920 199.604 M209.234 203.658 C 207.680 204.468,207.125 204.921,206.650 205.765 C 206.318 206.357,205.681 207.100,205.236 207.417 C 203.758 208.469,203.184 211.446,204.006 213.788 C 204.438 215.021,208.800 218.844,210.061 219.097 C 213.054 219.695,217.795 219.109,218.665 218.033 C 218.999 217.620,219.684 216.789,220.187 216.185 C 223.195 212.580,221.699 205.441,217.511 203.413 C 215.222 202.305,211.626 202.412,209.234 203.658 M193.151 204.224 C 195.138 204.601,196.638 206.549,197.873 210.355 C 199.040 213.954,194.833 218.470,190.314 218.470 C 184.829 218.470,179.812 211.293,183.283 208.412 C 183.524 208.212,184.191 207.412,184.765 206.635 C 186.530 204.247,189.210 203.476,193.151 204.224 M217.762 204.452 C 219.515 205.607,221.144 208.841,221.157 211.191 C 221.171 213.581,220.748 214.418,217.927 217.575 C 217.114 218.485,212.053 218.849,210.607 218.101 C 203.139 214.238,205.777 204.002,214.248 203.971 C 216.517 203.963,217.153 204.050,217.762 204.452 " stroke="none" fill="#568dae" fill-rule="evenodd"/>
    <path id="path1" d="M256.069 34.304 C 219.959 34.752,195.583 35.330,193.997 35.778 C 193.416 35.942,193.404 36.028,193.404 39.808 L 193.404 43.671 194.129 43.979 C 195.763 44.675,197.211 44.881,202.243 45.133 C 205.382 45.291,208.215 45.574,209.235 45.832 C 211.832 46.488,219.982 46.778,256.201 47.501 C 271.868 47.814,272.019 47.829,272.678 49.218 C 273.238 50.398,273.189 138.921,272.627 140.184 C 272.016 141.560,271.207 141.688,263.135 141.691 C 249.140 141.696,201.360 142.836,196.570 143.279 C 195.046 143.420,193.710 143.535,193.602 143.535 C 193.493 143.536,193.404 145.362,193.404 147.595 L 193.404 151.654 194.129 151.806 C 196.879 152.382,215.231 153.187,246.042 154.081 C 277.043 154.982,281.824 154.714,283.543 151.979 C 283.862 151.471,284.566 150.578,285.108 149.994 C 287.075 147.873,286.919 152.366,287.010 95.251 C 287.102 37.203,287.298 42.413,284.888 38.862 C 281.456 33.803,282.547 33.976,256.069 34.304 M366.123 40.255 C 364.789 40.744,364.520 40.983,363.333 42.733 C 361.478 45.468,360.923 46.821,360.414 49.849 C 359.909 52.852,359.691 53.492,358.966 54.094 C 358.730 54.290,358.316 54.882,358.047 55.409 C 356.744 57.964,351.801 62.046,348.893 62.970 C 347.797 63.318,346.410 63.945,345.811 64.363 C 345.113 64.850,343.729 65.371,341.953 65.816 C 340.064 66.289,338.818 66.769,338.038 67.324 C 336.572 68.368,335.237 68.760,331.873 69.135 C 330.379 69.301,328.710 69.550,328.166 69.689 L 327.177 69.941 327.177 90.775 C 327.177 111.434,327.181 111.609,327.704 111.609 C 327.995 111.609,328.232 111.436,328.232 111.223 C 328.232 110.527,329.301 110.242,332.418 110.107 C 336.655 109.924,337.658 109.660,343.404 107.209 C 344.274 106.837,345.165 106.316,345.383 106.051 C 345.600 105.785,346.353 105.324,347.054 105.026 C 347.756 104.729,349.003 103.963,349.825 103.325 C 350.647 102.688,351.823 101.914,352.438 101.607 C 353.255 101.198,353.730 100.710,354.196 99.798 C 354.548 99.111,355.920 97.421,357.246 96.042 C 360.254 92.913,362.248 90.298,363.152 88.294 C 363.537 87.443,364.195 86.355,364.616 85.875 C 365.037 85.396,365.638 84.319,365.951 83.481 C 366.264 82.644,366.920 81.239,367.408 80.359 C 367.896 79.480,368.496 78.047,368.740 77.177 C 368.984 76.306,369.594 74.849,370.096 73.938 C 370.931 72.424,371.065 71.862,371.662 67.342 C 372.021 64.625,372.660 61.036,373.081 59.367 C 374.479 53.837,374.948 46.545,374.043 44.416 C 373.387 42.874,370.931 40.797,369.131 40.262 C 367.466 39.768,367.453 39.768,366.123 40.255 M198.890 63.279 C 198.207 63.522,197.494 63.875,197.307 64.063 C 196.809 64.564,196.666 126.630,197.159 128.112 C 198.001 130.637,207.452 130.876,208.659 128.403 C 209.031 127.640,209.198 66.037,208.832 64.576 C 208.435 62.994,202.040 62.160,198.890 63.279 M107.520 67.715 C 93.075 68.080,68.963 69.129,68.140 69.428 L 67.546 69.644 67.546 87.896 L 67.546 106.148 68.259 107.625 C 69.129 109.427,69.090 109.400,71.310 109.774 C 72.877 110.039,73.252 110.220,74.230 111.183 C 75.334 112.272,75.417 112.303,79.537 113.148 C 81.839 113.620,84.031 114.215,84.408 114.470 C 85.997 115.546,88.128 115.959,96.834 116.880 C 99.518 117.164,103.199 117.626,105.013 117.907 C 111.171 118.861,112.191 118.889,113.081 118.123 L 113.852 117.460 113.924 93.214 L 113.995 68.967 113.356 68.367 C 112.617 67.673,111.983 67.602,107.520 67.715 M221.492 78.874 C 220.978 79.589,220.436 80.215,220.288 80.265 C 220.109 80.324,219.995 87.792,219.947 102.644 C 219.908 114.904,219.786 125.356,219.677 125.871 C 219.450 126.949,220.684 128.748,222.248 129.617 C 223.774 130.465,230.638 130.072,231.453 129.090 C 231.814 128.655,232.137 82.668,231.792 80.786 C 231.631 79.906,230.773 78.843,229.559 78.017 C 229.035 77.660,228.268 77.573,225.666 77.573 L 222.427 77.573 221.492 78.874 M175.462 88.841 C 174.102 89.077,174.142 88.450,174.142 109.235 C 174.142 131.092,173.955 129.364,176.368 129.798 C 182.411 130.884,186.672 129.053,186.139 125.598 C 185.729 122.937,185.716 95.413,186.125 93.844 C 186.705 91.617,186.042 90.027,184.116 89.025 C 183.429 88.668,177.219 88.535,175.462 88.841 M244.571 89.335 L 243.931 90.016 243.855 108.241 C 243.770 128.460,243.804 129.004,245.198 129.724 C 246.205 130.245,253.568 130.094,254.237 129.538 C 254.838 129.040,254.805 89.671,254.203 89.069 C 253.389 88.255,245.378 88.476,244.571 89.335 M153.237 111.187 C 151.185 111.628,151.329 111.023,151.237 119.613 C 151.148 128.044,151.241 129.414,151.926 129.679 C 153.081 130.126,159.763 130.161,160.607 129.724 C 161.489 129.268,161.527 129.193,162.018 126.896 C 162.359 125.298,162.251 113.172,161.888 112.340 C 161.251 110.879,157.189 110.338,153.237 111.187 M243.497 158.564 C 236.319 158.722,236.368 158.710,235.425 160.553 C 235.202 160.989,234.687 161.727,234.281 162.193 C 233.875 162.660,233.302 163.586,233.007 164.252 C 232.712 164.918,232.053 165.952,231.541 166.550 C 231.030 167.147,230.371 168.278,230.077 169.063 C 229.784 169.847,229.194 170.925,228.767 171.458 C 228.341 171.991,227.642 173.199,227.215 174.142 C 226.678 175.330,225.961 176.314,224.883 177.342 L 223.326 178.827 220.436 178.996 C 218.847 179.089,214.578 179.286,210.950 179.433 C 204.167 179.708,198.578 180.089,197.289 180.364 L 196.558 180.520 196.651 190.458 C 196.753 201.338,196.878 202.501,198.082 203.772 C 199.739 205.523,200.465 215.231,199.020 216.316 C 198.698 216.557,198.201 216.933,197.915 217.150 C 197.613 217.380,197.343 217.973,197.271 218.563 C 197.204 219.122,197.018 219.710,196.859 219.869 C 196.659 220.070,196.570 223.532,196.570 231.146 L 196.570 242.133 197.559 242.424 C 200.947 243.420,225.942 243.716,228.431 242.789 C 229.338 242.451,231.126 241.961,232.404 241.699 C 234.948 241.178,236.790 240.366,237.512 239.449 C 237.768 239.124,238.367 238.703,238.843 238.515 C 240.027 238.046,240.597 237.516,241.211 236.312 C 241.498 235.750,242.000 235.037,242.325 234.729 C 244.057 233.090,246.388 229.039,246.709 227.110 C 246.884 226.058,247.319 223.848,247.677 222.197 C 248.654 217.678,248.484 202.595,247.392 197.098 C 246.418 192.192,246.286 191.770,245.356 190.603 C 244.906 190.039,244.326 189.162,244.065 188.654 C 243.805 188.146,243.324 187.493,242.996 187.203 C 242.183 186.484,240.369 183.662,240.369 183.118 C 240.369 182.661,242.887 178.244,244.561 175.764 C 245.724 174.041,246.654 172.575,247.658 170.883 C 249.354 168.023,250.311 166.518,251.219 165.283 C 251.744 164.569,252.428 163.450,252.739 162.797 C 253.051 162.144,253.508 161.289,253.757 160.898 C 254.479 159.760,252.202 158.071,250.345 158.366 C 250.155 158.396,247.074 158.485,243.497 158.564 M217.511 203.413 C 221.699 205.441,223.195 212.580,220.187 216.185 C 219.684 216.789,218.999 217.620,218.665 218.033 C 217.795 219.109,213.054 219.695,210.061 219.097 C 208.800 218.844,204.438 215.021,204.006 213.788 C 203.184 211.446,203.758 208.469,205.236 207.417 C 205.681 207.100,206.318 206.357,206.650 205.765 C 208.203 203.003,214.048 201.737,217.511 203.413 " stroke="none" fill="#43b147" fill-rule="evenodd"/>
  </g>
</svg>